<svg width="256" height="256" viewBox="0 0 256 256" fill="none" xmlns="http://www.w3.org/2000/svg">
<g clip-path="url(#clip0_7_8)">
<path d="M207.763 0C195.36 0 185.076 8.42214 182.354 19.8527C135.165 20.7549 59.5405 21.8886 59.5405 118.141C59.5405 119.946 60.1461 121.75 60.7496 123.254C62.8681 127.165 76.4799 135.587 129.719 135.587C182.958 135.587 196.57 127.165 198.688 123.254C199.595 121.75 199.897 119.946 199.897 118.141C198.688 106.249 191.656 93.8222 187.798 83.7236C181.212 66.4833 173.279 54.7445 187.193 42.1118C192.033 47.8274 199.291 51.7382 207.46 51.7382C221.979 51.7382 233.475 40.0073 233.475 25.8702C233.477 11.7308 222.285 0 207.763 0Z" fill="white"/>
<path fill-rule="evenodd" clip-rule="evenodd" d="M68.8944 140.713C77.9043 144.212 95.7413 147.642 129.719 147.642C160.32 147.642 177.83 144.86 187.59 141.751C187.677 143.028 187.946 144.293 188.391 145.506C190.302 148.227 192.884 157.561 192.884 157.561L195.036 167.515C195.036 167.515 197.722 184.77 205.107 192.744C205.107 192.744 254.909 237.501 221.323 283.31C221.323 283.31 199.185 309.641 162.638 289.268C162.638 289.268 145.613 279.728 128.209 279.779C110.805 279.831 93.7797 289.268 93.7797 289.268C57.233 309.641 35.0949 283.31 35.0949 283.31C1.37142 237.519 51.1562 192.744 51.1562 192.744C58.5413 184.736 61.244 167.515 61.244 167.515L63.5507 157.561C63.5507 157.561 66.1329 148.278 68.061 145.506C68.6272 143.965 68.907 142.341 68.8944 140.713ZM76.0486 229.494C83.1926 234.798 91.8 235.297 95.2429 230.63V230.682C98.7203 225.998 95.7593 217.869 88.6153 212.565C81.4712 207.261 72.8983 206.744 69.4209 211.429C65.9436 216.113 68.9045 224.189 76.0486 229.494ZM89.6654 170.27C89.6826 174.644 94.7781 180.517 101.096 180.517L101.13 180.568C107.462 180.327 112.54 175.051 112.54 168.711C112.54 162.372 107.462 157.096 101.13 156.855C98.4845 156.96 95.9531 157.962 93.9518 159.696L99.8564 167.566C100.528 168.41 100.201 170.27 99.1162 170.27H89.6654ZM153.205 170.27H143.754V170.322C143.771 174.696 148.918 180.603 155.184 180.603C161.45 180.603 166.615 174.386 166.615 168.048C166.596 161.873 161.512 156.801 155.339 156.801L155.184 156.803C152.539 156.908 150.007 157.91 148.006 159.644L153.945 167.566C154.633 168.41 154.306 170.27 153.205 170.27ZM161.089 229.459C164.532 234.126 173.139 233.644 180.249 228.271V228.323C187.393 223.036 190.354 214.924 186.911 210.258C183.468 205.591 174.843 206.107 167.717 211.394C160.59 216.681 157.646 224.792 161.089 229.459Z" fill="white"/>
</g>
<defs>
<clipPath id="clip0_7_8">
<rect width="256" height="256" fill="white"/>
</clipPath>
</defs>
</svg>
