<svg width="170" height="239" viewBox="0 0 170 239" fill="none" xmlns="http://www.w3.org/2000/svg">
<g clip-path="url(#clip0_4_279)">
<path d="M148.379 0C138.398 0 130.122 6.77741 127.932 15.9758C89.9582 16.7018 29.1021 17.6141 29.1021 95.0698C29.1021 96.5219 29.5894 97.9739 30.075 99.1845C31.7798 102.332 42.7334 109.109 85.5754 109.109C128.417 109.109 139.372 102.332 141.076 99.1845C141.806 97.9739 142.049 96.5218 142.049 95.0698C141.076 85.5 135.417 75.5 132.313 67.3735C127.013 53.5 120.629 44.0536 131.825 33.8879C135.721 38.4873 141.562 41.6344 148.135 41.6344C159.819 41.6344 169.069 32.1945 169.069 20.8181C169.071 9.43997 160.064 0 148.379 0Z" fill="white"/>
<path fill-rule="evenodd" clip-rule="evenodd" d="M36.6293 113.234C43.8796 116.049 58.2333 118.81 85.5755 118.81C110.201 118.81 124.291 116.57 132.145 114.069C132.215 115.096 132.431 116.114 132.79 117.091C134.328 119.28 136.406 126.791 136.406 126.791L138.137 134.801C138.137 134.801 140.298 148.687 146.241 155.103C146.241 155.103 186.318 191.121 159.291 227.983C159.291 227.983 141.476 249.172 112.066 232.778C112.066 232.778 98.3657 225.101 84.3605 225.142C70.3552 225.184 56.6548 232.778 56.6548 232.778C27.2451 249.172 9.43034 227.983 9.43034 227.983C-17.7074 191.135 22.3551 155.103 22.3551 155.103C28.2979 148.659 30.4728 134.801 30.4728 134.801L32.3291 126.791C32.3291 126.791 34.4071 119.322 35.9586 117.091C36.4143 115.85 36.6394 114.543 36.6293 113.234ZM42.3863 184.677C48.1352 188.945 55.0617 189.347 57.8322 185.591V185.633C60.6305 181.863 58.2478 175.322 52.4989 171.054C46.75 166.786 39.8512 166.37 37.053 170.14C34.2547 173.909 36.6374 180.408 42.3863 184.677ZM53.3439 137.019C53.3578 140.539 57.4582 145.264 62.5422 145.264L62.5699 145.306C67.665 145.112 71.7516 140.866 71.7516 135.764C71.7516 130.663 67.665 126.417 62.5699 126.223C60.4408 126.308 58.4038 127.114 56.7933 128.51L61.5448 134.843C62.0851 135.522 61.8219 137.019 60.9491 137.019H53.3439ZM104.475 137.019H96.8696V137.06C96.8835 140.58 101.025 145.333 106.068 145.333C111.11 145.333 115.266 140.331 115.266 135.231C115.251 130.261 111.16 126.18 106.193 126.18L106.068 126.182C103.939 126.266 101.902 127.072 100.291 128.468L105.071 134.843C105.625 135.522 105.361 137.019 104.475 137.019ZM110.819 184.649C113.59 188.405 120.516 188.016 126.238 183.693V183.734C131.987 179.48 134.369 172.953 131.599 169.197C128.828 165.442 121.888 165.857 116.153 170.112C110.418 174.366 108.049 180.893 110.819 184.649Z" fill="white"/>
</g>
<defs>
<clipPath id="clip0_4_279">
<rect width="170" height="239" fill="white"/>
</clipPath>
</defs>
</svg>
