<svg viewBox="0 0 122 105" xmlns="http://www.w3.org/2000/svg" xml:space="preserve" style="fill-rule:evenodd;clip-rule:evenodd;stroke-linejoin:round;stroke-miterlimit:2"><path d="M105.57 44.25c-4.29-4.63-5.85-14.65-5.85-14.65l-1.25-5.78s-1.5-5.42-2.61-7a7.89 7.89 0 0 1 1.67-8.14c2.055-2.172 3-3.88-1.37-7 0 0-4.79-4-8.25.59 0 0-3.23 5.91-7.86 5-1.26-.34-2-.48-2-.48s-10.42-2-17.14-2c-6.72 0-17.14 2-17.14 2s-.79.14-2 .48c-4.64.89-7.87-5-7.87-5-3.45-4.6-8.25-.59-8.25-.59-4.4 3.15-1.36 7-1.36 7a7.89 7.89 0 0 1 1.67 8.14c-1.12 1.61-2.62 7-2.62 7L22 29.6s-1.57 10-5.86 14.65c0 0-28.92 26-9.33 52.59 0 0 12.86 15.29 34.09 3.46 0 0 9.89-5.48 20-5.51 10.11-.03 20 5.51 20 5.51 21.23 11.83 34.09-3.46 34.09-3.46 19.51-26.6-9.42-52.59-9.42-52.59Zm-63.82 22c-2 2.71-7 2.42-11.15-.66s-5.87-7.77-3.85-10.49c2.02-2.72 7-2.42 11.15.66s5.87 7.8 3.85 10.52v-.03Zm3.4-29.1c-3.67 0-6.63-3.41-6.64-5.95H44c.63 0 .82-1.08.43-1.57L41 25.06a6.779 6.779 0 0 1 4.17-1.65c3.678.14 6.628 3.204 6.628 6.885 0 3.681-2.95 6.745-6.628 6.885l-.02-.03Zm24.78-5.95h5.49c.64 0 .83-1.08.43-1.57l-3.45-4.6a6.779 6.779 0 0 1 4.17-1.65l.09-.001c3.586 0 6.539 2.945 6.55 6.531 0 3.68-3 7.29-6.64 7.29-3.64 0-6.63-3.43-6.64-5.97v-.03Zm21.2 33.68C87 68 82 68.28 80 65.57s-.29-7.42 3.85-10.49c4.14-3.07 9.15-3.37 11.15-.66s.28 7.42-3.87 10.49v-.03Z" style="fill:#fff;fill-rule:nonzero" transform="matrix(.99962 0 0 1 -.002 -.075)"/></svg>
