<svg xmlns="http://www.w3.org/2000/svg" viewBox="0 0 105.417 79.496"><path fill="hsl(7, 82%, 55%)" d="M70.751 28.473h.011c.316-.281 14.315-12.266 10.268-27.898-2.034-2.939-8.131 5.875-10.279 15.736C68.615 6.45 62.507-2.364 60.483.575c-4.057 15.632 9.943 27.617 10.268 27.898zM47.095 53.984h.007c.318-.281 14.327-12.266 10.26-27.897-2.028-2.94-8.131 5.875-10.267 15.736-2.143-9.861-8.254-18.676-10.273-15.736-4.052 15.632 9.942 27.616 10.273 27.897zM94.415 53.984h.003c.323-.281 14.32-12.266 10.261-27.897-2.023-2.94-8.124 5.875-10.264 15.736-2.141-9.861-8.258-18.676-10.273-15.736-4.056 15.632 9.938 27.616 10.273 27.897zM23.432 79.496h.009c.322-.281 14.32-12.266 10.273-27.897-2.033-2.939-8.138 5.875-10.282 15.736-2.133-9.861-8.245-18.676-10.262-15.736-4.058 15.631 9.941 27.616 10.262 27.897z"/></svg>
